<?xml version="1.0" encoding="UTF-8"?>
<svg version="1.1" xmlns="http://www.w3.org/2000/svg" width="240" height="127">
<path d="M0 0 C2.7282936 2.486892 3.83477934 4.18187289 4.56640625 7.8046875 C4.54293445 26.25352011 -5.18460907 41.64767607 -13.68066406 57.41894531 C-15.52477365 61.02662973 -16.12046052 63.68822425 -16.0625 67.6875 C-16.05347656 68.49574219 -16.04445312 69.30398437 -16.03515625 70.13671875 C-16.02355469 70.75160156 -16.01195312 71.36648437 -16 72 C-12.34930288 71.02648077 -10.69069244 70.55071422 -8 68 C-6.83581592 64.68627227 -6.06790468 61.51391842 -5.37475586 58.08374023 C-4.16877234 52.19657448 -2.38399312 47.38399312 2 43 C4.9375 42.8125 4.9375 42.8125 8 43 C8.66 43.66 9.32 44.32 10 45 C9.4028701 50.80922089 7.79685878 56.55074629 6.5234375 62.24609375 C5.98356009 66.11790116 6.26053951 69.17945412 7 73 C8.96340754 72.73359966 8.96340754 72.73359966 11 72 C12.9011147 68.11855748 13.95871491 64.24424483 14.93359375 60.05078125 C15.09988281 59.3451001 15.26617187 58.63941895 15.4375 57.91235352 C15.76628778 56.49044269 16.08054449 55.06507954 16.37890625 53.63647461 C17.36392095 49.30460115 18.45737924 46.73871836 22 44 C24.5625 43.125 24.5625 43.125 27 43 C27.99 43.66 28.98 44.32 30 45 C29.28516361 51.96097962 28.23448129 58.80121519 27.01757812 65.68945312 C26.88673828 66.44806641 26.75589844 67.20667969 26.62109375 67.98828125 C26.5017749 68.66415283 26.38245605 69.34002441 26.25952148 70.03637695 C25.91264985 72.33080293 25.91264985 72.33080293 26 76 C30.33203306 72.65251991 32.96268747 69.60833625 36 65 C36.99 64.67 37.98 64.34 39 64 C37.60669078 78.01627486 37.60669078 78.01627486 32 83 C25.79679144 88 25.79679144 88 23 88 C22.85304687 88.99966797 22.85304687 88.99966797 22.703125 90.01953125 C20.75380794 102.03471831 17.54783464 113.56728871 7.25 121 C2.64554241 123.59829277 -1.83995241 124.07980413 -7 123 C-10.125 121 -10.125 121 -12 118 C-13.16707214 111.74024943 -11.45788455 107.96850518 -8.0390625 102.71875 C-2.24834213 94.99778951 4.46346716 88.02922628 12 82 C11.01 82.33 10.02 82.66 9 83 C4.25661115 83.54184779 1.01184642 83.66079766 -3.0625 81 C-3.701875 80.34 -4.34125 79.68 -5 79 C-5.56847656 79.28875 -6.13695312 79.5775 -6.72265625 79.875 C-11.6070591 82.22342741 -15.4673364 83.8678688 -21 83 C-23.4375 81 -23.4375 81 -25 79 C-25.721875 79.28875 -26.44375 79.5775 -27.1875 79.875 C-28.115625 80.24625 -29.04375 80.6175 -30 81 C-30.721875 81.37125 -31.44375 81.7425 -32.1875 82.125 C-38.22256457 84.00257564 -44.88521162 83.28732387 -51 82 C-50.95359375 82.71542969 -50.9071875 83.43085937 -50.859375 84.16796875 C-50.47633178 94.74269755 -52.38512247 105.21850456 -59.359375 113.53125 C-62.09160139 115.97724315 -64.39188926 116.67198993 -68 117 C-71.02122148 116.03870226 -72.39613468 115.05979577 -73.97265625 112.29296875 C-77.24813785 104.56892609 -76.49610659 98.85739318 -73.5625 91.1875 C-72.71300983 89.12306947 -71.85960704 87.0602385 -71 85 C-70.505 83.515 -70.505 83.515 -70 82 C-71.485 82.495 -71.485 82.495 -73 83 C-75.71344311 83.33370974 -78.29202943 83.40704359 -81 83 C-83.97289221 80.41070678 -84.39090184 77.78510999 -85 74 C-85.06533435 72.06348981 -85.08584303 70.12497139 -85.0625 68.1875 C-85.05347656 67.21167969 -85.04445313 66.23585938 -85.03515625 65.23046875 C-85.02355469 64.49441406 -85.01195313 63.75835937 -85 63 C-85.19634033 63.5347998 -85.39268066 64.06959961 -85.5949707 64.62060547 C-86.49066286 67.04263288 -87.40136214 69.45874307 -88.3125 71.875 C-88.62123047 72.71675781 -88.92996094 73.55851562 -89.24804688 74.42578125 C-89.55419922 75.23144531 -89.86035156 76.03710938 -90.17578125 76.8671875 C-90.45333252 77.61081543 -90.73088379 78.35444336 -91.0168457 79.12060547 C-92 81 -92 81 -95 83 C-98.0625 83.3125 -98.0625 83.3125 -101 83 C-103.13575819 79.79636272 -103.25095576 78.98716541 -103.1875 75.3125 C-103.18105469 74.50425781 -103.17460938 73.69601563 -103.16796875 72.86328125 C-102.95369778 69.21070868 -102.48281527 65.62690833 -102 62 C-102.39324463 62.84763916 -102.39324463 62.84763916 -102.79443359 63.71240234 C-103.98345643 66.26872256 -105.17913846 68.82187229 -106.375 71.375 C-106.7875 72.26445313 -107.2 73.15390625 -107.625 74.0703125 C-108.02460937 74.92109375 -108.42421875 75.771875 -108.8359375 76.6484375 C-109.20251465 77.43395996 -109.5690918 78.21948242 -109.94677734 79.02880859 C-111 81 -111 81 -113 83 C-116 83.25 -116 83.25 -119 83 C-119.99 82.01 -119.99 82.01 -121 81 C-121 80.01 -121 79.02 -121 78 C-121.60585937 78.3609375 -122.21171875 78.721875 -122.8359375 79.09375 C-128.76275973 82.3762977 -134.16684786 84.50454726 -141 83 C-142.78515625 81.59375 -142.78515625 81.59375 -144 80 C-144 79.34 -144 78.68 -144 78 C-145.77503906 78.75796875 -145.77503906 78.75796875 -147.5859375 79.53125 C-164.93310017 86.74577565 -164.93310017 86.74577565 -172 85 C-176.84460635 82.66741176 -179.52487205 79.75986144 -182 75 C-182.63687753 71.09912511 -182.31921395 69.54384599 -180.3125 66.125 C-178 64 -178 64 -175.3125 63.625 C-173 64 -173 64 -172 65 C-171.43118087 67.31082773 -170.97236639 69.63644097 -170.5 71.96875 C-170.1901935 73.98233957 -170.1901935 73.98233957 -169 75 C-164.85793129 75.27613791 -161.96623347 75.3494887 -158.0625 73.9375 C-155.16855715 71.21894763 -155.21859217 68.86179505 -155 65 C-156.43649084 64.41418595 -157.87427825 63.83155156 -159.3125 63.25 C-160.22 62.88261719 -161.1275 62.51523437 -162.0625 62.13671875 C-164.95414417 61.01774474 -167.87112229 60.04162709 -170.8125 59.0625 C-175.24724359 57.43789096 -178.26080044 56.01749269 -181 52 C-182.30095878 48.49628147 -182.64280993 45.57984132 -181.21484375 42.0703125 C-177.82608065 36.71721554 -172.96356842 34.15893814 -166.99609375 32.4140625 C-160.90461379 31.15046783 -156.2323119 31.59291318 -151 35 C-148.91802249 36.87377976 -148.11547847 38.1109991 -147.75390625 40.89453125 C-147.63694717 44.60282195 -147.59284543 47.99105679 -150 51 C-151.875 51.9375 -151.875 51.9375 -154 52 C-156.25 51 -156.25 51 -158 49 C-158.25 45.3125 -158.25 45.3125 -158 42 C-159.62490954 41.97301811 -161.24994633 41.95361243 -162.875 41.9375 C-163.77992188 41.92589844 -164.68484375 41.91429687 -165.6171875 41.90234375 C-168.0168585 41.83750743 -168.0168585 41.83750743 -170 43 C-170.41780879 45.37305578 -170.41780879 45.37305578 -170 48 C-166.4203405 50.61539698 -162.80550431 51.7730477 -158.5625 52.9375 C-153.665677 54.39436024 -149.87058944 55.65246319 -146 59 C-145.29310985 60.31245134 -144.61877629 61.643778 -144 63 C-143.87995605 62.44014404 -143.75991211 61.88028809 -143.63623047 61.3034668 C-143.07509145 58.75828167 -142.47561789 56.22364567 -141.875 53.6875 C-141.59269531 52.36588867 -141.59269531 52.36588867 -141.3046875 51.01757812 C-139.72132226 44.5109366 -139.72132226 44.5109366 -136 41.875 C-132.81375702 40.94567913 -131.12757902 40.9881362 -128 42 C-127.07710674 45.62625321 -126.99722502 48.05379267 -127.99609375 51.65234375 C-128.22490234 52.51150391 -128.45371094 53.37066406 -128.68945312 54.25585938 C-128.93630859 55.14080078 -129.18316406 56.02574219 -129.4375 56.9375 C-131.66127738 64.8357173 -131.66127738 64.8357173 -132 73 C-128.16197263 72.46694064 -125.8411364 71.66358803 -123 69 C-122.04737107 66.48411358 -122.04737107 66.48411358 -121.62109375 63.59765625 C-121.42193359 62.54255859 -121.22277344 61.48746094 -121.01757812 60.40039062 C-120.82615234 59.29888672 -120.63472656 58.19738281 -120.4375 57.0625 C-120.0500709 54.88496945 -119.65328944 52.70907719 -119.24609375 50.53515625 C-119.07779053 49.569729 -118.9094873 48.60430176 -118.73608398 47.60961914 C-117.93493059 44.76931115 -117.04168606 43.12262444 -115 41 C-111.9375 40.625 -111.9375 40.625 -109 41 C-107 43 -107 43 -106.8046875 45.6015625 C-106.82789062 46.59929688 -106.85109375 47.59703125 -106.875 48.625 C-106.89304687 49.62789062 -106.91109375 50.63078125 -106.9296875 51.6640625 C-106.95289062 52.43492188 -106.97609375 53.20578125 -107 54 C-106.29423828 52.84371094 -106.29423828 52.84371094 -105.57421875 51.6640625 C-104.95160156 50.66117188 -104.32898438 49.65828125 -103.6875 48.625 C-103.07261719 47.62726562 -102.45773438 46.62953125 -101.82421875 45.6015625 C-100 43 -100 43 -97 41 C-93.875 41.25 -93.875 41.25 -91 42 C-89.73762269 44.52475462 -89.90143596 46.31200466 -89.9375 49.125 C-89.94652344 50.03507812 -89.95554687 50.94515625 -89.96484375 51.8828125 C-89.97644531 52.58148438 -89.98804687 53.28015625 -90 54 C-89.29423828 52.84371094 -89.29423828 52.84371094 -88.57421875 51.6640625 C-87.95160156 50.66117188 -87.32898438 49.65828125 -86.6875 48.625 C-86.07261719 47.62726562 -85.45773438 46.62953125 -84.82421875 45.6015625 C-83 43 -83 43 -80 41 C-76.67759676 41.3241369 -75.39223697 41.60776303 -73 44 C-72.38297798 49.72052621 -73.19150374 55.3405262 -74 61 C-74.08350473 64.335277 -74.06040208 67.66446292 -74 71 C-68.76826185 69.75434806 -64.91898265 67.5581711 -62 63 C-61.10793978 60.01808977 -60.4796544 57.0287773 -59.8359375 53.984375 C-58.3272977 48.59838993 -55.32431051 44.61410452 -50.75 41.4375 C-46.37342208 40.74122624 -42.29974798 40.89152638 -38 42 C-34.69539832 44.56275232 -33.31687199 46.04938402 -32 50 C-31.46634352 55.96258491 -31.42818823 60.9771397 -35 66 C-37.55722773 68.47652626 -40.22480469 70.77193346 -43 73 C-41.783125 72.896875 -40.56625 72.79375 -39.3125 72.6875 C-38.62800781 72.62949219 -37.94351563 72.57148437 -37.23828125 72.51171875 C-34.15751222 71.80738936 -32.39532251 71.11106085 -30 69 C-29.69653059 66.06439791 -29.67589226 63.6568521 -29.875 60.75 C-30.49693008 41.99627157 -25.26690209 19.86158671 -12.76171875 5.4140625 C-8.61403653 1.44065264 -6.01108441 -1.0347596 0 0 Z M-8 13 C-13.83660666 23.82322205 -17.2268702 33.70990219 -18 46 C-14.96707244 42.41057197 -13.27297112 38.46237145 -11.4375 34.1875 C-11.13392578 33.50107422 -10.83035156 32.81464844 -10.51757812 32.10742188 C-7.78746298 25.82042469 -5.66071364 19.95537033 -6 13 C-6.66 13 -7.32 13 -8 13 Z M-46 50 C-50.63842973 54.48381541 -51.52682701 59.77452787 -52 66 C-51.61067748 68.24790184 -51.61067748 68.24790184 -51 70 C-45.69143418 66.16037979 -42.23369489 62.60230123 -41 56 C-41.18559948 53.12482102 -41.18559948 53.12482102 -42 51 C-43.32 50.67 -44.64 50.34 -46 50 Z M-92 55 C-91 57 -91 57 -91 57 Z M-109 56 C-108 58 -108 58 -108 58 Z M-63 86 C-65.3030887 92.56654456 -66.33693273 98.03672362 -66 105 C-65.01 105 -64.02 105 -63 105 C-61.73417781 101.13276369 -61.8881235 97.26848738 -61.9375 93.25 C-61.94201172 92.55261719 -61.94652344 91.85523437 -61.95117188 91.13671875 C-61.9628998 89.42444197 -61.98083347 87.71220967 -62 86 C-62.33 86 -62.66 86 -63 86 Z M5.1875 99.5625 C1.64283052 103.15817192 -0.92278188 106.39399461 -3 111 C-2.67 111.99 -2.34 112.98 -2 114 C2.45328818 112.85486875 4.45778395 110.77047298 6.9296875 107.0859375 C8.73364391 103.57019764 9.41026277 99.88170329 10 96 C8.01183933 96 6.50913685 98.27028734 5.1875 99.5625 Z " fill="#161616" transform="translate(183,1)"/>
<path d="M0 0 C3.7 1.4 3.7 1.4 5 4 C5.3125 6.875 5.3125 6.875 5 10 C2.34811798 13.27065449 0.37819831 14.81624022 -3.8125 15.375 C-7 15 -7 15 -9.9375 12.875 C-12 10 -12 10 -12.125 6.9375 C-9.87069504 1.05125926 -6.12424852 -0.78181896 0 0 Z " fill="#161616" transform="translate(58,23)"/>
<path d="M0 0 C1.62463842 -0.05395478 3.24978541 -0.09277195 4.875 -0.125 C5.77992188 -0.14820313 6.68484375 -0.17140625 7.6171875 -0.1953125 C10 0 10 0 12 2 C12.33 1.34 12.66 0.68 13 0 C14.32 0 15.64 0 17 0 C17 2.97 17 5.94 17 9 C16.01 9 15.02 9 14 9 C13.67 8.34 13.34 7.68 13 7 C12.01 7 11.02 7 10 7 C9.67 7.66 9.34 8.32 9 9 C8.34 9 7.68 9 7 9 C7 6.69 7 4.38 7 2 C6.34 2 5.68 2 5 2 C5 4.31 5 6.62 5 9 C4.01 9 3.02 9 2 9 C2 6.69 2 4.38 2 2 C1.34 2 0.68 2 0 2 C0 1.34 0 0.68 0 0 Z " fill="#161616" transform="translate(222,44)"/>
</svg>
